<?xml version="1.0" encoding="UTF-8" standalone="no"?>
<svg
   width="800"
   height="300"
   viewBox="0 0 211.66666 79.375"
   version="1.1"
   id="svg1"
   xmlns:xlink="http://www.w3.org/1999/xlink"
   xmlns="http://www.w3.org/2000/svg"
   xmlns:svg="http://www.w3.org/2000/svg">
   <path
      d="m 29.735457,67.339166 h -3.825282 l -0.560709,1.925101 h -2.448429 l 3.177351,-9.34515 h 3.588537 l 3.208502,9.34515 H 30.296166 Z M 29.268199,65.72557 28.06579,61.576323 h -0.473488 l -1.208639,4.149247 z m 3.993502,-5.806453 h 7.021323 q 0.847293,0 1.302091,0.461027 0.461027,0.454797 0.461027,1.302091 v 5.818914 q 0,0.847293 -0.461027,1.308321 -0.454798,0.454797 -1.302091,0.454797 h -7.021323 z m 6.348472,7.525961 q 0.193133,0 0.193133,-0.193133 v -5.320506 q 0,-0.193133 -0.193133,-0.193133 h -4.111866 v 5.706772 z m 2.47958,-7.525961 h 2.52319 l 2.143155,7.557111 h 0.404956 l 2.161845,-7.557111 h 2.46089 l -3.040289,9.34515 h -3.625918 z m 15.008317,7.420049 h -3.825281 l -0.560709,1.925101 h -2.44843 l 3.177351,-9.34515 h 3.588538 l 3.208502,9.34515 h -2.579262 z m -0.467257,-1.613596 -1.20241,-4.149247 h -0.473487 l -1.20864,4.149247 z m 3.993499,-5.806453 h 3.625918 l 2.822235,6.84688 h 0.398727 v -6.84688 h 2.099543 v 9.34515 h -3.625918 l -2.822235,-6.84688 h -0.398727 v 6.84688 h -2.099543 z m 18.372571,7.694173 q 0,0.803683 -0.436107,1.252251 -0.436107,0.448567 -1.25848,0.448567 h -5.239514 q -0.834834,0 -1.295861,-0.448567 -0.454798,-0.454798 -0.454798,-1.270941 v -6.005816 q 0,-0.816144 0.454798,-1.264711 0.461027,-0.454797 1.295861,-0.454797 h 5.239514 q 0.822373,0 1.25848,0.448567 0.436107,0.448567 0.436107,1.25225 v 1.476534 h -2.186765 v -1.165029 q 0,-0.193133 -0.205593,-0.193133 h -3.850202 q -0.09345,0 -0.149523,0.04984 -0.04984,0.04984 -0.04984,0.143292 v 5.420187 q 0,0.09345 0.04984,0.143293 0.05607,0.04984 0.149523,0.04984 h 3.850202 q 0.205593,0 0.205593,-0.193134 v -1.171258 h 2.186765 z m 0.616778,-7.694173 h 7.525961 v 1.719507 h -5.283125 v 2.080854 h 5.108682 v 1.719507 h -5.108682 v 2.105774 h 5.283125 v 1.719508 h -7.525961 z m 8.167664,0 h 7.021322 q 0.847294,0 1.302091,0.461027 0.461028,0.454797 0.461028,1.302091 v 5.818914 q 0,0.847293 -0.461028,1.308321 -0.454797,0.454797 -1.302091,0.454797 h -7.021322 z m 6.348472,7.525961 q 0.193133,0 0.193133,-0.193133 v -5.320506 q 0,-0.193133 -0.193133,-0.193133 h -4.111866 v 5.706772 z m 7.675483,-7.525961 h 6.90918 q 0.8473,0 1.30209,0.429877 0.4548,0.429877 0.4548,1.214869 v 3.021599 q 0,0.784992 -0.4548,1.214869 -0.45479,0.429877 -1.30209,0.429877 h -4.67257 v 3.034059 h -2.23661 z m 6.2301,4.535513 q 0.0934,0 0.14952,-0.04984 0.0561,-0.05607 0.0561,-0.149523 v -2.367438 q 0,-0.09345 -0.0561,-0.143292 -0.0561,-0.04984 -0.14952,-0.04984 h -3.99349 v 2.759935 z m 8.68475,2.884536 h -3.82528 l -0.56071,1.925101 h -2.44843 l 3.17735,-9.34515 h 3.58854 l 3.2085,9.34515 h -2.57926 z m -0.46726,-1.613596 -1.20241,-4.149247 h -0.47349 l -1.20863,4.149247 z m 3.9935,-5.806453 h 7.02133 q 0.84729,0 1.30209,0.461027 0.46103,0.454797 0.46103,1.302091 v 5.818914 q 0,0.847293 -0.46103,1.308321 -0.4548,0.454797 -1.30209,0.454797 h -7.02133 z m 6.34848,7.525961 q 0.19313,0 0.19313,-0.193133 v -5.320506 q 0,-0.193133 -0.19313,-0.193133 h -4.11187 v 5.706772 z m 3.17734,-7.525961 h 7.02133 q 0.84729,0 1.30209,0.461027 0.46102,0.454797 0.46102,1.302091 v 5.818914 q 0,0.847293 -0.46102,1.308321 -0.4548,0.454797 -1.30209,0.454797 h -7.02133 z m 6.34847,7.525961 q 0.19314,0 0.19314,-0.193133 v -5.320506 q 0,-0.193133 -0.19314,-0.193133 h -4.11186 v 5.706772 z m 3.17735,-7.525961 h 2.23661 v 7.50104 h 4.66011 v 1.84411 h -6.89672 z m 7.40759,0 h 7.52596 v 1.719507 h -5.28313 v 2.080854 h 5.10868 v 1.719507 h -5.10868 v 2.105774 h 5.28313 v 1.719508 h -7.52596 z m 8.16767,0 h 7.52596 v 1.719507 h -5.28313 v 2.192996 h 5.08999 v 1.719507 h -5.08999 v 3.71314 h -2.24283 z m 13.62522,7.420049 h -3.82528 l -0.56071,1.925101 h -2.44843 l 3.17735,-9.34515 h 3.58854 l 3.2085,9.34515 h -2.57926 z m -0.46726,-1.613596 -1.20241,-4.149247 h -0.47349 l -1.20864,4.149247 z m 3.99351,-5.806453 h 6.83442 q 0.85352,0 1.30832,0.436107 0.4548,0.429877 0.4548,1.214869 v 2.124464 q 0,0.679081 -0.38627,1.059117 -0.38626,0.380037 -1.13388,0.380037 h -0.47348 v 0.323965 q 0.31773,0.03115 0.4984,0.218053 0.18691,0.180673 0.38004,0.61678 l 1.37062,2.971758 h -2.46712 l -1.4703,-3.544927 h -2.67271 v 3.544927 h -2.24284 z m 6.18026,4.167937 q 0.1869,0 0.1869,-0.199363 v -2.080854 q 0,-0.09345 -0.0498,-0.149522 -0.0436,-0.05607 -0.13706,-0.05607 h -3.93742 v 2.48581 z m 3.03405,-4.167937 h 7.52596 v 1.719507 h -5.28312 v 2.080854 h 5.10868 v 1.719507 h -5.10868 v 2.105774 h 5.28312 v 1.719508 h -7.52596 z"
      id="logo-subtext" />
   <path
      id="logo-text"
      d="m 15.132409,13.278776 c -2.327876,0 -4.360346,0.379342 -6.0978185,1.138432 -1.8049474,0.775959 -3.2050089,1.864301 -4.2002603,3.2644 -1.0289887,1.416968 -1.6365557,2.833935 -1.822111,4.250903 -0.202424,1.518181 -0.3033407,3.727642 -0.3033407,6.629053 v 11.993583 c 0,4.04848 0.3286251,7.05147 0.9865031,9.008235 0.6410094,1.990504 1.9824182,3.559104 4.023527,4.706173 2.0411086,1.147069 4.6135234,1.720825 7.7173584,1.720825 3.03636,0 5.558058,-0.675189 7.565429,-2.024683 2.057978,-1.366362 3.390934,-2.918056 3.998206,-4.655529 0.590403,-1.804948 0.885217,-4.815874 0.885217,-9.033041 V 38.733552 H 17.257861 v 5.136638 c 0,2.294139 -0.117822,3.711106 -0.353983,4.250903 -0.253031,0.607272 -0.792975,0.910539 -1.61954,0.910539 -0.826564,0 -1.34115,-0.303267 -1.543575,-0.910539 -0.269898,-0.624141 -0.404626,-1.923286 -0.404626,-3.89692 V 25.196394 c 0,-2.041108 0.134728,-3.382 0.404626,-4.02301 0.202425,-0.62414 0.750822,-0.936377 1.644861,-0.936377 0.742221,0 1.248354,0.236162 1.518254,0.708484 0.236161,0.489192 0.353983,1.804726 0.353983,3.947046 v 7.11016 h 10.627258 v -3.896403 c 0,-3.91353 -0.328625,-6.747465 -0.986503,-8.501806 -0.590403,-1.788079 -1.923359,-3.289574 -3.998205,-4.504118 -2.041109,-1.214544 -4.630429,-1.821594 -7.768002,-1.821594 z m 128.563211,0 c -2.32788,0 -4.35189,0.379342 -6.0725,1.138432 -1.77121,0.792827 -3.14591,1.881169 -4.12429,3.2644 -1.06273,1.450705 -1.6703,3.010853 -1.82211,4.680851 -0.20243,1.703735 -0.30386,4.622197 -0.30386,8.755021 v 6.983553 c 0,4.217167 0.10143,7.168923 0.30386,8.85579 0.20242,1.686866 0.84328,3.264436 1.92288,4.732011 1.06272,1.416968 2.46278,2.487888 4.20026,3.21324 1.73747,0.725353 3.70283,1.088306 5.89576,1.088306 2.32787,0 4.35241,-0.379859 6.07301,-1.138949 1.75435,-0.809695 3.1375,-1.897521 4.14962,-3.263883 0.99525,-1.467575 1.59385,-3.045145 1.79627,-4.732011 0.10122,-1.096463 0.16884,-2.310564 0.20258,-3.643188 0.0337,-1.332625 0.0506,-3.036469 0.0506,-5.111316 V 31.11748 c 0,-4.217167 -0.10144,-7.169441 -0.30386,-8.856307 -0.15182,-1.686867 -0.77577,-3.247014 -1.87224,-4.680851 -0.99524,-1.433837 -2.38685,-2.522179 -4.17493,-3.2644 -1.85556,-0.691615 -3.82938,-1.037146 -5.92109,-1.037146 z m 52.50946,0 c -1.11334,0 -2.11715,0.08401 -3.01119,0.252698 -0.87717,0.151818 -1.71193,0.387979 -2.50476,0.708483 -0.77596,0.303637 -1.5098,0.708853 -2.20141,1.214913 -1.99051,1.484443 -3.22203,3.129119 -3.69435,4.934066 -0.40485,1.754341 -0.6072,4.588275 -0.6072,8.501807 v 12.170833 c 0,2.833936 0.10143,4.942481 0.30386,6.325712 0.18555,1.298887 0.68323,2.648232 1.49293,4.048331 0.80969,1.248282 2.0074,2.319201 3.59306,3.213241 1.60253,0.894039 3.27256,1.34152 5.01003,1.34152 1.53505,0 2.85058,-0.320689 3.94705,-0.961698 1.09646,-0.657878 1.99039,-1.619429 2.68201,-2.884579 l 1.03766,2.960543 h 6.70501 v -21.963 h -12.49949 v 6.199105 h 2.17609 v 4.883422 c 0,1.838685 -0.13524,3.112472 -0.40514,3.820956 -0.3205,0.657878 -0.85993,0.986503 -1.61902,0.986503 -0.72535,0 -1.18922,-0.286361 -1.39165,-0.859896 -0.2699,-0.624141 -0.40514,-1.838758 -0.40514,-3.643705 V 24.892537 c 0,-2.057977 0.13524,-3.373511 0.40514,-3.947046 0.20243,-0.472322 0.63248,-0.708484 1.29036,-0.708484 0.75909,0 1.23987,0.295332 1.44229,0.885734 0.20243,0.489192 0.32871,1.956875 0.37931,4.402832 v 3.66851 h 10.62725 v -1.770951 c 0,-3.28939 -0.31171,-5.844899 -0.93586,-7.666715 -0.641,-1.754342 -1.99087,-3.272742 -4.04884,-4.554761 -2.05798,-1.282019 -4.6473,-1.92288 -7.768,-1.92288 z M 33.659444,14.113867 28.219466,55.104646 H 39.25135 l 0.63252,-7.363375 h 3.820955 l 0.531234,7.363375 H 55.116532 L 49.044034,14.113867 Z m 23.304003,0 V 55.104646 H 74.118989 V 46.90618 H 67.590705 V 14.113867 Z m 19.432922,0 V 55.104646 H 93.551911 V 46.90618 H 87.023627 V 14.113867 Z m 29.906701,0 v 40.990779 h 10.62726 V 38.632267 h 2.83393 c 2.34475,0 4.25095,-0.329142 5.71852,-0.98702 1.4001,-0.64101 2.37804,-1.560296 2.9347,-2.757971 0.55667,-1.130201 0.83509,-3.027943 0.83509,-5.693193 v -3.567741 c 0,-2.513431 -0.13472,-4.419626 -0.40462,-5.718514 -0.23617,-1.147069 -0.77611,-2.175725 -1.61954,-3.086633 -0.72535,-0.843433 -1.89771,-1.5012 -3.5171,-1.973523 -1.56879,-0.489191 -3.79567,-0.733805 -6.68021,-0.733805 z m 51.88159,0 v 40.990779 h 8.90643 V 36.506815 l 5.54126,18.597831 h 9.3369 V 14.113867 h -8.90643 v 18.445902 l -5.97173,-18.445902 z m -14.4384,6.12314 c 0.65788,0 1.08794,0.253068 1.29036,0.759127 0.2193,0.50606 0.32918,1.737583 0.32918,3.694348 v 18.799886 c 0,2.445957 -0.10988,3.964357 -0.32918,4.554761 -0.20242,0.657878 -0.66629,0.986503 -1.39164,0.986503 -0.70849,0 -1.13855,-0.269456 -1.29036,-0.809253 -0.23617,-0.539798 -0.35399,-2.007481 -0.35399,-4.402832 V 24.690482 c 0,-2.108583 0.16854,-3.390822 0.50591,-3.846277 0.25304,-0.404847 0.66619,-0.607198 1.23972,-0.607198 z m -26.81593,0.936377 c 1.36636,0 2.2772,0.202351 2.73265,0.607198 0.45545,0.404849 0.68316,1.324135 0.68316,2.757971 v 3.36517 c 0,1.484442 -0.1939,2.471351 -0.58188,2.960542 -0.37111,0.472323 -1.03784,0.708484 -1.99936,0.708484 h -0.83457 z m -23.480222,1.55236 c -0.754768,0 -1.411,0.123367 -1.968872,0.369487 -0.574279,0.257058 -1.020164,0.609848 -1.337386,1.058333 -0.344565,0.470362 -0.541435,0.976273 -0.590661,1.517737 -0.06563,0.552402 -0.0987,1.4986 -0.0987,2.838586 v 2.263945 c 0,1.367332 0.03307,2.324726 0.0987,2.871659 0.06563,0.546933 0.27318,1.058442 0.623217,1.534273 0.344569,0.459424 0.79885,0.806616 1.362191,1.041797 0.563341,0.235182 1.200498,0.352433 1.911511,0.352433 0.754768,0 1.411,-0.122849 1.968872,-0.368969 0.568811,-0.262528 1.017495,-0.615318 1.345655,-1.058334 0.322689,-0.475831 0.51676,-0.987339 0.582393,-1.534273 0.03281,-0.355506 0.05469,-0.749246 0.06563,-1.181323 0.01094,-0.432078 0.01654,-0.984536 0.01654,-1.657263 v -2.263945 c 0,-1.367332 -0.03307,-2.324726 -0.0987,-2.871659 -0.04922,-0.546933 -0.251691,-1.052844 -0.607198,-1.517737 -0.322691,-0.464893 -0.773657,-0.817683 -1.353406,-1.058333 -0.601627,-0.224243 -1.241583,-0.336414 -1.91978,-0.336414 z m 4.736145,0.287321 V 36.28719 h 3.445787 v -5.578987 h 2.14974 v -2.51871 h -2.14974 v -2.518192 h 2.40399 v -2.658236 z m -56.404308,0.285771 c 0.387979,4.824438 0.682793,8.324592 0.885217,10.500651 0.219293,2.159189 0.463907,4.385556 0.733806,6.679695 h -3.643189 c 0.168687,-2.057977 0.387943,-4.267439 0.657841,-6.629052 0.269899,-2.378483 0.725316,-5.895542 1.366325,-10.551294 z m 51.6847,1.683101 c 0.213302,0 0.352429,0.0819 0.418062,0.24598 0.0711,0.16408 0.10697,0.563417 0.10697,1.19786 v 6.095752 c 0,0.793052 -0.03587,1.284969 -0.10697,1.476395 -0.06563,0.213305 -0.215954,0.320394 -0.451135,0.320394 -0.229709,0 -0.369353,-0.0875 -0.418579,-0.262516 -0.07657,-0.175019 -0.114722,-0.651175 -0.114722,-1.42782 v -6.202205 c 0,-0.683667 0.05494,-1.099281 0.164331,-1.246953 0.08204,-0.131263 0.216086,-0.196887 0.402043,-0.196887 z" />
</svg>
